<?xml version="1.0" encoding="UTF-8" standalone="no"?>
<svg
   xmlns:dc="http://purl.org/dc/elements/1.1/"
   xmlns:cc="http://creativecommons.org/ns#"
   xmlns:rdf="http://www.w3.org/1999/02/22-rdf-syntax-ns#"
   xmlns:svg="http://www.w3.org/2000/svg"
   xmlns="http://www.w3.org/2000/svg"
   xmlns:sodipodi="http://sodipodi.sourceforge.net/DTD/sodipodi-0.dtd"
   xmlns:inkscape="http://www.inkscape.org/namespaces/inkscape"
   viewBox="0 0 19.238001 19.238001"
   id="svg2"
   version="1.1"
   inkscape:version="1.0.2 (e86c870879, 2021-01-15)"
   width="19.238001"
   height="19.238001"
   sodipodi:docname="NorthArrow_05_blue.svg">
  <metadata
     id="metadata90">
    <rdf:RDF>
      <cc:Work
         rdf:about="">
        <dc:format>image/svg+xml</dc:format>
        <dc:type
           rdf:resource="http://purl.org/dc/dcmitype/StillImage" />
        <dc:title />
      </cc:Work>
    </rdf:RDF>
  </metadata>
  <defs
     id="defs88">
    <clipPath
       clipPathUnits="userSpaceOnUse"
       id="clipPath2363">
      <g
         inkscape:label="Clip"
         id="use2365"
         style="fill-rule:evenodd">
        <path
           fill="rgba(0,0,255,1.0)"
           fill-opacity="0.5"
           stroke="none"
           style="display:inline;fill-rule:evenodd;stroke-width:0.199562;stroke-linecap:square;stroke-linejoin:miter;stroke-miterlimit:4;stroke-dasharray:none;stroke-opacity:1"
           d="m 3.69375,3.69375 2.28125,4 1.34375,-0.375 0.34375,-1.3125 z"
           id="path869"
           inkscape:connector-curvature="0" />
        <path
           fill="rgba(0,0,255,1.0)"
           fill-opacity="0.5"
           stroke="none"
           style="display:inline;fill-rule:evenodd;stroke-width:0.199562;stroke-linecap:square;stroke-linejoin:miter;stroke-miterlimit:4;stroke-dasharray:none;stroke-opacity:1"
           d="m 15.775,3.69375 -4,2.28125 0.375,1.34375 1.34375,0.375 z"
           id="path871"
           inkscape:connector-curvature="0" />
        <path
           fill="rgba(0,0,255,1.0)"
           fill-opacity="0.5"
           stroke="none"
           style="display:inline;fill-rule:evenodd;stroke-width:0.199562;stroke-linecap:square;stroke-linejoin:miter;stroke-miterlimit:4;stroke-dasharray:none;stroke-opacity:1"
           d="M 6.00625,11.80625 3.69375,15.775 7.6625,13.4625 7.31875,12.15 Z"
           id="path873"
           inkscape:connector-curvature="0" />
        <path
           fill="rgba(0,0,255,1.0)"
           fill-opacity="0.5"
           stroke="none"
           style="display:inline;fill-rule:evenodd;stroke-width:0.199562;stroke-linecap:square;stroke-linejoin:miter;stroke-miterlimit:4;stroke-dasharray:none;stroke-opacity:1"
           d="M 13.4625,11.80625 12.15,12.15 l -0.375,1.34375 4,2.28125 z"
           id="path875"
           inkscape:connector-curvature="0" />
        <path
           fill="rgba(0,0,255,1.0)"
           fill-opacity="1"
           stroke="rgba(35,35,35,1.0)"
           stroke-opacity="1"
           style="font-style:normal;font-variant:normal;font-weight:normal;font-stretch:normal;font-size:medium;line-height:normal;font-family:Sans;-inkscape-font-specification:Sans;text-indent:0;text-align:start;text-decoration:none;text-decoration-line:none;letter-spacing:normal;word-spacing:normal;text-transform:none;writing-mode:lr-tb;direction:ltr;baseline-shift:baseline;text-anchor:start;display:inline;overflow:visible;visibility:visible;fill-rule:evenodd;stroke-width:0.2375;marker:none;enable-background:accumulate"
           d="m 9.7375,0.11875 c -5.3108819,0 -9.61875,4.3078672 -9.61875,9.6187503 0,5.3108817 4.3078681,9.6187497 9.61875,9.6187497 5.310882,0 9.61875,-4.307868 9.61875,-9.6187497 0,-5.3108831 -4.307868,-9.6187503 -9.61875,-9.6187503 z m 0,19 c -5.1825274,0 -9.38125,-4.198723 -9.38125,-9.3812497 0,-5.1825286 4.1987226,-9.3812503 9.38125,-9.3812503 5.182527,0 9.38125,4.1987217 9.38125,9.3812503 0,5.1825267 -4.198723,9.3812497 -9.38125,9.3812497"
           id="path877"
           inkscape:connector-curvature="0"
           sodipodi:nodetypes="ssssscsssc" />
        <path
           sodipodi:type="star"
           fill="rgba(0,0,255,1.0) #000"
           fill-opacity="1"
           stroke="rgba(0,0,255,1.0) #000"
           stroke-opacity="1"
           id="path879"
           sodipodi:sides="4"
           sodipodi:cx="30"
           sodipodi:cy="26.620001"
           sodipodi:r1="10"
           sodipodi:r2="3"
           sodipodi:arg1="0"
           sodipodi:arg2="0.78539816"
           inkscape:flatsided="false"
           inkscape:rounded="0"
           inkscape:randomized="0"
           transform="matrix(0.9076178,0,0,0.90807237,-17.497969,-14.436479)"
           style="fill-rule:evenodd"
           d="M 40,26.620001 32.12132,28.741321 30,36.620001 27.87868,28.741321 20,26.620001 27.87868,24.498681 30,16.620001 32.12132,24.49868 Z" />
        <path
           style="fill:#0000ff;fill-rule:evenodd;stroke-width:0.0441942"
           d="M 8.7793716,15.181096 C 8.2691419,13.281968 7.8317937,11.703791 7.8074869,11.674036 7.7831801,11.644282 6.2220209,11.206472 4.3382442,10.701125 2.4544676,10.195778 0.88046173,9.7703012 0.84045347,9.7556216 0.80044522,9.7409416 2.3550055,9.3023021 4.2950319,8.780867 L 7.8223525,7.8328025 7.8846079,7.6097214 C 7.9188487,7.4870264 8.3430823,5.9101491 8.8273501,4.1055489 9.3116175,2.300949 9.71778,0.82438447 9.7299334,0.82429446 9.7420868,0.8242043 10.02862,1.8532293 10.366674,3.1110164 c 0.338053,1.2577871 0.76237,2.8344368 0.942925,3.5036661 l 0.328282,1.2167809 3.52988,0.9487336 c 1.941434,0.5218037 3.505855,0.9573673 3.476492,0.9679191 -0.02936,0.010552 -1.611796,0.4395999 -3.516518,0.9534409 -2.177343,0.587386 -3.47521,0.957656 -3.495665,0.997281 -0.0179,0.03466 -0.447802,1.609269 -0.955351,3.499122 -0.507548,1.889853 -0.9333545,3.436097 -0.9462362,3.436097 -0.012882,0 -0.4408816,-1.553833 -0.9511112,-3.452961 z"
           id="path881" />
        <path
           style="fill:#0000ff;fill-rule:evenodd;stroke-width:0.00390625"
           d="M 4.0555845,17.495737 C 3.6424336,17.189009 3.3194307,16.912809 2.9760969,16.572665 2.798854,16.397068 2.662408,16.252609 2.5110499,16.080306 1.5732604,15.012749 0.88726229,13.760638 0.49504739,12.400619 c -0.0306788,-0.10638 -0.0683691,-0.246061 -0.0683691,-0.253377 0,-0.0032 0.0327671,-0.0044 0.11886345,-0.0044 h 0.11886344 l 0.005754,0.02051 c 0.003165,0.01128 0.0192968,0.06885 0.0358492,0.12793 0.17106464,0.610596 0.41775162,1.231018 0.71319312,1.793693 0.5579057,1.062545 1.3045495,2.000097 2.2136586,2.779668 0.2556123,0.21919 0.5320079,0.431459 0.7996777,0.614143 0.045117,0.03079 0.083701,0.05745 0.085742,0.05924 0.00204,0.0018 -0.087607,0.0031 -0.1992187,0.003 l -0.2029297,-2.77e-4 -0.060547,-0.04495 z"
           id="path883" />
        <path
           style="fill:#0000ff;fill-rule:evenodd;stroke-width:0.0220971"
           d="M 9.0397712,19.321876 C 7.3134279,19.171758 5.8488089,18.670011 4.4352571,17.74447 l -0.2734848,-0.179068 0.1751793,-0.0063 0.1751795,-0.0063 0.3082279,0.190013 c 1.1739548,0.72371 2.5297861,1.183255 3.9542471,1.340252 0.3555641,0.03919 1.5696569,0.03899 1.9224469,-3.19e-4 2.001739,-0.22302 3.770924,-0.99779 5.253951,-2.300834 1.657698,-1.456517 2.760248,-3.487987 3.076639,-5.668768 C 19.206057,9.8833022 19.140215,8.5994751 18.837821,7.4117903 18.048843,4.3129914 15.734068,1.8315555 12.685791,0.81682132 11.460392,0.40890123 10.090227,0.2624274 8.7635576,0.39752545 6.8472883,0.59266392 5.0315055,1.3808465 3.5707422,2.6515872 3.3064827,2.8814707 2.8080398,3.3842376 2.588263,3.6425892 1.3342487,5.1167069 0.58737052,6.880626 0.38414662,8.8481009 c -0.0424229,0.4107095 -0.0351049,1.4758921 0.0129799,1.8893011 0.0550029,0.472888 0.19072986,1.218667 0.24980848,1.372623 0.009024,0.02351 -0.0140463,0.03054 -0.10027787,0.03054 -0.1317158,0 -0.11651654,0.0338 -0.22504082,-0.500409 C -0.0959969,9.5844718 0.17613083,7.4444443 1.0967344,5.5445864 2.2206621,3.2251266 4.2746975,1.4259138 6.7232034,0.61613412 8.8454965,-0.08575912 11.17328,-0.02112174 13.249266,0.79734839 16.586904,2.1132322 18.917412,5.1773819 19.29175,8.7419993 c 0.26492,2.5226977 -0.469489,5.0007207 -2.082768,7.0276177 -0.291364,0.366063 -1.050632,1.127487 -1.418551,1.422577 -1.481684,1.188388 -3.132045,1.878648 -5.016038,2.097948 -0.349456,0.04068 -1.4088882,0.06006 -1.7346218,0.03173 z"
           id="path885" />
        <path
           style="fill:#00ffff;fill-rule:evenodd;stroke-width:0.0220971"
           d="m 3.7986544,15.623877 c 0.4640495,-0.802862 2.1944543,-3.77076 2.206223,-3.783996 0.013666,-0.01537 1.2733838,0.300547 1.2984739,0.325637 0.027841,0.02784 0.3364187,1.265298 0.3213482,1.288669 -0.015658,0.02428 -3.7690524,2.222217 -3.8505721,2.254839 -0.021377,0.0086 -0.013174,-0.01992 0.024527,-0.08515 z"
           id="path887" />
        <path
           style="fill:#00ffff;fill-rule:evenodd;stroke-width:0.0220971"
           d="m 13.772031,14.617167 c -1.069499,-0.611219 -1.95324,-1.114627 -1.96387,-1.118684 -0.01063,-0.0041 0.06387,-0.3069 0.165548,-0.672985 l 0.184875,-0.66561 0.648439,-0.169401 c 0.356642,-0.09317 0.651016,-0.166121 0.654165,-0.162113 0.0245,0.03118 2.265861,3.892852 2.261296,3.896012 -0.0032,0.0022 -0.880954,-0.495999 -1.950453,-1.107219 z"
           id="path889" />
        <path
           style="fill:#00ffff;fill-rule:evenodd;stroke-width:0.0220971"
           d="M 12.811466,7.4931195 C 12.459018,7.3946803 12.167937,7.312211 12.164621,7.3098551 c -0.0033,-0.00236 -0.08901,-0.3015382 -0.190419,-0.6648492 -0.183322,-0.6567436 -0.184118,-0.66072 -0.137601,-0.6872864 0.02573,-0.014696 0.906917,-0.518061 1.958186,-1.1185876 1.051268,-0.6005266 1.91488,-1.0888335 1.919136,-1.0851266 0.01328,0.011563 -2.2162,3.9063615 -2.239544,3.9123891 -0.01215,0.00314 -0.310464,-0.074835 -0.662913,-0.1732749 z"
           id="path891" />
        <path
           style="fill:#00ffff;fill-rule:evenodd;stroke-width:0.0220971"
           d="M 4.8690322,5.7285065 C 4.2585028,4.6580078 3.7640588,3.7770651 3.7702678,3.7708561 3.7818372,3.7592867 7.576492,5.959729 7.6214489,6.004077 7.6398755,6.0222538 7.6025305,6.1949803 7.4777224,6.6688367 L 7.3091006,7.3090388 6.657332,7.491572 C 6.2988594,7.5919655 5.9996061,7.6742769 5.9923246,7.6744866 5.9850432,7.6746855 5.4795617,6.7990051 4.8690322,5.7285065 Z"
           id="path893" />
      </g>
    </clipPath>
  </defs>
  <sodipodi:namedview
     pagecolor="#ffffff"
     bordercolor="#666666"
     borderopacity="1"
     objecttolerance="10"
     gridtolerance="10"
     guidetolerance="10"
     inkscape:pageopacity="0"
     inkscape:pageshadow="2"
     inkscape:window-width="1920"
     inkscape:window-height="1043"
     id="namedview86"
     showgrid="false"
     inkscape:zoom="22.627417"
     inkscape:cx="9.8023397"
     inkscape:cy="11.693437"
     inkscape:window-x="0"
     inkscape:window-y="1080"
     inkscape:window-maximized="1"
     inkscape:current-layer="layer3"
     showguides="false"
     inkscape:guide-bbox="true"
     fit-margin-top="0"
     fit-margin-left="0"
     fit-margin-right="0"
     fit-margin-bottom="0"
     inkscape:document-rotation="0">
    <sodipodi:guide
       orientation="1,0"
       position="9.362161,0.65174538"
       id="guide3018" />
    <sodipodi:guide
       orientation="0,1"
       position="8.2297291,-0.72608847"
       id="guide3020" />
    <sodipodi:guide
       orientation="0,1"
       position="6.9574795,-0.21244483"
       id="guide3022" />
    <sodipodi:guide
       orientation="1,0"
       position="10.389448,1.5875326"
       id="guide3024" />
    <sodipodi:guide
       orientation="1,0"
       position="9.8758047,2.9018399"
       id="guide3026" />
    <sodipodi:guide
       orientation="0,1"
       position="2.2995735,-1.2397321"
       id="guide3028" />
  </sodipodi:namedview>
  <g
     inkscape:groupmode="layer"
     id="layer4"
     inkscape:label="diff"
     style="display:inline"
     transform="translate(9.3756441,0.99543571)" />
  <g
     inkscape:groupmode="layer"
     id="layer3"
     inkscape:label="base_layer"
     style="display:inline"
     transform="translate(9.3756441,0.99543571)">
    <g
       id="g924">
      <circle
         style="fill:#ffffff;stroke-width:1.65583"
         id="path2340"
         cx="0.24335632"
         cy="8.6235647"
         r="9.6190004" />
      <path
         fill="rgba(0,0,255,1.0)"
         fill-opacity="0.5"
         stroke="none"
         style="display:inline;fill-rule:evenodd;stroke-width:0.199562;stroke-linecap:square;stroke-linejoin:miter;stroke-miterlimit:4;stroke-dasharray:none;stroke-opacity:1"
         d="m -5.8003937,2.5798146 2.28125,4 1.34375,-0.375 0.34375,-1.3125 z"
         id="path3303"
         inkscape:connector-curvature="0" />
      <path
         fill="rgba(0,0,255,1.0)"
         fill-opacity="0.5"
         stroke="none"
         style="display:inline;fill-rule:evenodd;stroke-width:0.199562;stroke-linecap:square;stroke-linejoin:miter;stroke-miterlimit:4;stroke-dasharray:none;stroke-opacity:1"
         d="m 6.2808563,2.5798146 -4,2.28125 0.375,1.34375 1.34375,0.375 z"
         id="path3301"
         inkscape:connector-curvature="0" />
      <path
         fill="rgba(0,0,255,1.0)"
         fill-opacity="0.5"
         stroke="none"
         style="display:inline;fill-rule:evenodd;stroke-width:0.199562;stroke-linecap:square;stroke-linejoin:miter;stroke-miterlimit:4;stroke-dasharray:none;stroke-opacity:1"
         d="m -3.4878937,10.692315 -2.3125,3.96875 3.96875,-2.3125 -0.34375,-1.3125 z"
         id="path3299"
         inkscape:connector-curvature="0" />
      <path
         fill="rgba(0,0,255,1.0)"
         fill-opacity="0.5"
         stroke="none"
         style="display:inline;fill-rule:evenodd;stroke-width:0.199562;stroke-linecap:square;stroke-linejoin:miter;stroke-miterlimit:4;stroke-dasharray:none;stroke-opacity:1"
         d="m 3.9683563,10.692315 -1.3125,0.34375 -0.375,1.34375 4,2.28125 z"
         id="path3137-4-9"
         inkscape:connector-curvature="0" />
      <path
         fill="rgba(0,0,255,1.0)"
         fill-opacity="1"
         stroke="rgba(35,35,35,1.0)"
         stroke-opacity="1"
         style="font-style:normal;font-variant:normal;font-weight:normal;font-stretch:normal;font-size:medium;line-height:normal;font-family:Sans;-inkscape-font-specification:Sans;text-indent:0;text-align:start;text-decoration:none;text-decoration-line:none;letter-spacing:normal;word-spacing:normal;text-transform:none;writing-mode:lr-tb;direction:ltr;baseline-shift:baseline;text-anchor:start;display:inline;overflow:visible;visibility:visible;fill-rule:evenodd;stroke-width:0.2375;marker:none;enable-background:accumulate"
         d="m 0.2433563,-0.9951854 c -5.3108819,0 -9.61875,4.3078672 -9.61875,9.6187503 0,5.3108821 4.3078681,9.6187501 9.61875,9.6187501 5.310882,0 9.61875,-4.307868 9.61875,-9.6187501 0,-5.3108831 -4.307868,-9.6187503 -9.61875,-9.6187503 z m 0,19.0000004 c -5.1825274,0 -9.38125,-4.198723 -9.38125,-9.3812501 0,-5.1825286 4.1987226,-9.3812503 9.38125,-9.3812503 5.182527,0 9.38125,4.1987217 9.38125,9.3812503 0,5.1825271 -4.198723,9.3812501 -9.38125,9.3812501"
         id="path3049"
         inkscape:connector-curvature="0"
         sodipodi:nodetypes="ssssscsssc" />
      <path
         sodipodi:type="star"
         fill="rgba(0,0,255,1.0) #000"
         fill-opacity="1"
         stroke="rgba(0,0,255,1.0) #000"
         stroke-opacity="1"
         id="path3137"
         sodipodi:sides="4"
         sodipodi:cx="30"
         sodipodi:cy="26.620001"
         sodipodi:r1="10"
         sodipodi:r2="3"
         sodipodi:arg1="0"
         sodipodi:arg2="0.78539816"
         inkscape:flatsided="false"
         inkscape:rounded="0"
         inkscape:randomized="0"
         transform="matrix(0.9076178,0,0,0.90807237,-26.992113,-15.550414)"
         style="fill-rule:evenodd"
         d="M 40,26.620001 32.12132,28.741321 30,36.620001 27.87868,28.741321 20,26.620001 27.87868,24.498681 30,16.620001 32.12132,24.49868 Z" />
      <path
         style="fill:#0000ff;fill-rule:evenodd;stroke-width:0.0441942"
         d="m -0.7147721,14.067161 c -0.5102297,-1.899128 -0.9475779,-3.477305 -0.9718847,-3.50706 -0.024307,-0.02975 -1.585466,-0.467564 -3.4692427,-0.9729114 -1.8837766,-0.505347 -3.4577825,-0.9308238 -3.4977907,-0.9455034 -0.040008,-0.01468 1.514552,-0.4533195 3.4545784,-0.9747546 l 3.5273206,-0.9480645 0.062255,-0.2230811 c 0.034241,-0.122695 0.4584744,-1.6995723 0.9427422,-3.5041725 0.4842674,-1.8045999 0.8904299,-3.28116443 0.9025833,-3.28125444 0.0121534,-9.016e-5 0.2986866,1.02893484 0.6367406,2.28672194 0.338053,1.2577871 0.76237,2.8344368 0.942925,3.5036661 l 0.328282,1.2167809 3.52988,0.9487336 c 1.941434,0.5218037 3.505855,0.9573673 3.476492,0.9679191 -0.02936,0.010552 -1.611796,0.4395999 -3.516518,0.9534409 -2.177343,0.5873864 -3.47521,0.9576564 -3.495665,0.9972814 -0.0179,0.03466 -0.447802,1.609269 -0.955351,3.499122 -0.507548,1.889853 -0.9333545,3.436097 -0.9462362,3.436097 -0.012882,0 -0.4408816,-1.553833 -0.9511112,-3.452961 z"
         id="path843" />
      <path
         style="fill:#0000ff;fill-rule:evenodd;stroke-width:0.00390625"
         d="m -5.4385592,16.381802 c -0.4131509,-0.306728 -0.7361538,-0.582928 -1.0794876,-0.923072 -0.1772429,-0.175597 -0.3136889,-0.320056 -0.465047,-0.492359 -0.9377895,-1.067557 -1.6237876,-2.319668 -2.0160025,-3.679687 -0.030679,-0.10638 -0.068369,-0.246061 -0.068369,-0.253377 0,-0.0032 0.032767,-0.0044 0.1188634,-0.0044 h 0.1188635 l 0.00575,0.02051 c 0.00316,0.01128 0.019297,0.06885 0.035849,0.12793 0.1710646,0.610596 0.4177516,1.231018 0.7131931,1.793693 0.5579057,1.062545 1.3045495,2.000097 2.2136586,2.779668 0.2556123,0.21919 0.5320079,0.431459 0.7996777,0.614143 0.045117,0.03079 0.083701,0.05745 0.085742,0.05924 0.00204,0.0018 -0.087607,0.0031 -0.1992187,0.003 l -0.2029297,-2.77e-4 -0.060547,-0.04495 z"
         id="path845" />
      <path
         style="fill:#0000ff;fill-rule:evenodd;stroke-width:0.0220971"
         d="m -0.4543725,18.207941 c -1.7263433,-0.150118 -3.1909623,-0.651865 -4.6045141,-1.577406 l -0.2734848,-0.179068 0.1751793,-0.0063 0.1751795,-0.0063 0.3082279,0.190013 c 1.1739548,0.72371 2.5297861,1.183255 3.9542471,1.340252 0.3555641,0.03919 1.5696569,0.03899 1.9224469,-3.19e-4 2.001739,-0.22302 3.770924,-0.99779 5.253951,-2.300834 1.657698,-1.456517 2.760248,-3.487987 3.076639,-5.6687684 C 9.7119133,8.7693668 9.6460713,7.4855397 9.3436773,6.2978549 8.5546993,3.199056 6.2399243,0.7176201 3.1916473,-0.29711408 1.9662483,-0.70503417 0.5960833,-0.851508 -0.7305861,-0.71640995 -2.6468554,-0.52127148 -4.4626382,0.2669111 -5.9234015,1.5376518 -6.187661,1.7675353 -6.6861039,2.2703022 -6.9058807,2.5286538 -8.159895,4.0027715 -8.9067732,5.7666906 -9.1099971,7.7341655 c -0.042423,0.4107095 -0.035105,1.4758921 0.01298,1.8893011 0.055003,0.4728884 0.1907299,1.2186674 0.2498085,1.3726234 0.00902,0.02351 -0.014046,0.03054 -0.1002779,0.03054 -0.1317158,0 -0.1165165,0.0338 -0.2250408,-0.500409 -0.4176132,-2.0556846 -0.1454855,-4.1957121 0.7751181,-6.09557 1.1239277,-2.3194598 3.1779631,-4.1186726 5.626469,-4.92845228 2.1222931,-0.70189322 4.4500766,-0.63725582 6.5260626,0.18121427 3.337638,1.31588381 5.668146,4.38003351 6.042484,7.94465091 0.2649197,2.5226981 -0.469489,5.0007211 -2.082768,7.0276181 -0.291364,0.366063 -1.050632,1.127487 -1.418551,1.422577 -1.481684,1.188388 -3.132045,1.878648 -5.016038,2.097948 -0.349456,0.04068 -1.4088882,0.06006 -1.7346218,0.03173 z"
         id="path847" />
      <path
         style="fill:#00ffff;fill-rule:evenodd;stroke-width:0.0220971"
         d="m -5.6954893,14.509942 c 0.4640495,-0.802862 2.1944543,-3.77076 2.206223,-3.783996 0.013666,-0.01537 1.2733838,0.300547 1.2984739,0.325637 0.027841,0.02784 0.3364187,1.265298 0.3213482,1.288669 -0.015658,0.02428 -3.7690524,2.222217 -3.8505721,2.254839 -0.021377,0.0086 -0.013174,-0.01992 0.024527,-0.08515 z"
         id="path849" />
      <path
         style="fill:#00ffff;fill-rule:evenodd;stroke-width:0.0220971"
         d="m 4.2778873,13.503232 c -1.069499,-0.611219 -1.95324,-1.114627 -1.96387,-1.118684 -0.01063,-0.0041 0.06387,-0.3069 0.165548,-0.672985 l 0.184875,-0.66561 0.648439,-0.169401 c 0.356642,-0.09317 0.651016,-0.166121 0.654165,-0.162113 0.0245,0.03118 2.265861,3.892852 2.261296,3.896012 -0.0032,0.0022 -0.880954,-0.495999 -1.950453,-1.107219 z"
         id="path851" />
      <path
         style="fill:#00ffff;fill-rule:evenodd;stroke-width:0.0220971"
         d="m 3.3173223,6.3791841 c -0.352448,-0.098439 -0.643529,-0.1809085 -0.646845,-0.1832644 -0.0033,-0.00236 -0.08901,-0.3015382 -0.190419,-0.6648492 -0.183322,-0.6567436 -0.184118,-0.66072 -0.137601,-0.6872864 0.02573,-0.014696 0.906917,-0.518061 1.958186,-1.1185876 1.051268,-0.6005266 1.91488,-1.0888335 1.919136,-1.0851266 0.01328,0.011563 -2.2162,3.9063615 -2.239544,3.9123891 -0.01215,0.00314 -0.310464,-0.074835 -0.662913,-0.1732749 z"
         id="path853" />
      <path
         style="fill:#00ffff;fill-rule:evenodd;stroke-width:0.0220971"
         d="M -4.6251115,4.6145711 C -5.2356409,3.5440724 -5.7300849,2.6631297 -5.7238759,2.6569207 c 0.011569,-0.011569 3.8062242,2.1888729 3.8511811,2.2332209 0.018427,0.018177 -0.018918,0.1909033 -0.1437265,0.6647597 l -0.1686218,0.6402021 -0.6517686,0.1825332 c -0.3584726,0.1003935 -0.6577259,0.1827049 -0.6650074,0.1829146 -0.00728,1.989e-4 -0.5127629,-0.8754815 -1.1232924,-1.9459801 z"
         id="path855" />
    </g>
  </g>
</svg>
