<?xml version="1.0" encoding="UTF-8" standalone="no"?>
<svg
   xmlns:dc="http://purl.org/dc/elements/1.1/"
   xmlns:cc="http://creativecommons.org/ns#"
   xmlns:rdf="http://www.w3.org/1999/02/22-rdf-syntax-ns#"
   xmlns:svg="http://www.w3.org/2000/svg"
   xmlns="http://www.w3.org/2000/svg"
   xmlns:sodipodi="http://sodipodi.sourceforge.net/DTD/sodipodi-0.dtd"
   xmlns:inkscape="http://www.inkscape.org/namespaces/inkscape"
   enable-background="new 0 0 580 580"
   height="900"
   viewBox="0 0 900 900"
   width="900"
   version="1.1"
   id="svg4"
   sodipodi:docname="poi_embassy2.svg"
   inkscape:version="1.0.2 (e86c870879, 2021-01-15)">
  <metadata
     id="metadata10">
    <rdf:RDF>
      <cc:Work
         rdf:about="">
        <dc:format>image/svg+xml</dc:format>
        <dc:type
           rdf:resource="http://purl.org/dc/dcmitype/StillImage" />
        <dc:title />
      </cc:Work>
    </rdf:RDF>
  </metadata>
  <defs
     id="defs8">
    <clipPath
       clipPathUnits="userSpaceOnUse"
       id="clipPath1018">
      <g
         inkscape:label="Clip"
         id="use1020"
         style="fill:#0000ff">
        <path
           d="m 290.832,441.674 c -31.244,13.811 -39.246,29.148 -24.407,46.783 9.142,10.865 13.638,9.969 14.894,-2.97 1.235,-12.734 4.188,-15.937 16.896,-18.32 27.198,-5.103 37.926,-16.841 37.926,-41.497 0,-17.664 -18.612,-18.242 -45.825,-1.424 -8.21,5.074 -2.841,13.001 5.785,8.54 4.719,-2.44 8.58,-5.948 8.58,-7.796 0,-2.466 0.846,-2.513 3.183,-0.175 4.87,4.872 0.661,9.038 -17.032,16.859 z"
           fill="rgba(0,0,255,1.0)"
           fill-opacity="1"
           stroke="rgba(35,35,35,1.0)"
           stroke-opacity="1"
           stroke-width="0.0"
           id="path890"
           style="fill:#0000ff" />
        <path
           d="m 328.016,486.704 c 9.092,-10.178 8.177,-28.52 -1.171,-23.479 -3.539,1.908 -13.514,5.662 -22.165,8.342 -11.871,3.677 -15.954,6.358 -16.644,10.931 -1.164,7.716 1.691,7.67 10.025,-0.159 5.087,-4.778 6.619,-5.215 6.619,-1.883 0,2.385 -12.308,12.253 -27.35,21.93 -15.043,9.677 -26.612,18.79 -25.709,20.25 2.659,4.303 67.839,-26.354 76.395,-35.932 z"
           fill="rgba(0,0,255,1.0)"
           fill-opacity="1"
           stroke="rgba(35,35,35,1.0)"
           stroke-opacity="1"
           stroke-width="0.0"
           id="path892"
           style="fill:#0000ff" />
        <path
           d="m 234.647,248.256 c 0.992,-1.606 8.237,-6.594 16.1,-11.084 14.295,-8.165 14.295,-8.165 3.37,-10.136 -21.112,-3.808 -35.236,-12.577 -35.236,-21.876 0,-10.276 7.745,-11.229 19.662,-2.417 9.831,7.269 30.959,6.826 35.705,-0.749 9.846,-15.715 -15.809,-35.339 -41.891,-32.044 -50.051,6.323 -60.335,45.334 -19.229,72.941 13.044,8.762 18.568,10.139 21.519,5.365 z"
           fill="rgba(0,0,255,1.0)"
           fill-opacity="1"
           stroke="rgba(35,35,35,1.0)"
           stroke-opacity="1"
           stroke-width="0.0"
           id="path894"
           style="fill:#0000ff" />
        <path
           d="m 196.045,137.979 c 1.941,2.655 7.089,7.174 11.44,10.042 8.201,5.407 33.668,7.108 51.882,3.466 11.391,-2.278 14.536,-67.551 3.425,-71.077 -3.032,-0.962 -8.136,-6.197 -11.344,-11.633 -7.323,-12.413 -15.978,-12.881 -47.812,-2.587 -19.814,6.407 -29.27,7.505 -77.618,9.015 -30.28,0.945 -55.055,2.523 -55.055,3.508 0,9.766 22.45,24.528 33.198,21.83 5.475,-1.374 6.842,-0.596 6.842,3.896 0,7.437 10.547,14.517 21.627,14.517 6.741,0 9.711,1.749 12.183,7.172 5.74,12.597 20.749,17.614 35.435,11.844 11.506,-4.521 12.486,-4.521 15.797,0.007 z"
           fill="rgba(0,0,255,1.0)"
           fill-opacity="1"
           stroke="rgba(35,35,35,1.0)"
           stroke-opacity="1"
           stroke-width="0.0"
           id="path896"
           style="fill:#0000ff" />
        <path
           d="m 279.074,64.546 c 4.811,3.37 5.586,7.359 5.594,28.775 0.004,13.674 0.851,48.994 1.882,78.488 1.875,53.625 1.875,53.625 10.002,53.625 8.128,0 8.128,0 8.128,-76.092 0,-76.093 0,-76.093 7.151,-84.591 C 325.452,48.563 323.443,29.168 307.279,20.809 279.377,6.38 253.444,46.594 279.074,64.546 Z"
           fill="rgba(0,0,255,1.0)"
           fill-opacity="1"
           stroke="rgba(35,35,35,1.0)"
           stroke-opacity="1"
           stroke-width="0.0"
           id="path898"
           style="fill:#0000ff" />
        <path
           d="m 352.606,264.865 c -2.296,1.905 -10.224,4.292 -17.619,5.306 -10.868,1.49 -13.08,2.724 -11.542,6.438 4.538,10.957 4.128,14.151 -2.89,22.491 -4.793,5.696 -14.751,11.606 -28.096,16.675 -51.44,19.535 -69.171,45.413 -49.125,71.695 8.774,11.504 8.5,11.483 26.793,1.992 13.904,-7.213 14.323,-7.764 8.844,-11.602 -16.611,-11.636 -5.79,-24.864 30.973,-37.865 42.085,-14.882 60.284,-33.334 56.276,-57.055 -2.594,-15.363 -8.09,-22.66 -13.614,-18.075 z"
           fill="rgba(0,0,255,1.0)"
           fill-opacity="1"
           stroke="rgba(35,35,35,1.0)"
           stroke-opacity="1"
           stroke-width="0.0"
           id="path900"
           style="fill:#0000ff" />
        <path
           d="m 324.77,178.626 c -22.994,19.348 4.653,42.035 29.152,23.922 10.3,-7.615 17.969,-6.507 17.969,2.598 0,13.32 -42.002,28.635 -79.006,28.808 -51.078,0.239 -87.506,50.775 -58.652,81.369 11.545,12.241 13.308,12.381 32.104,2.539 14.657,-7.674 14.657,-7.674 6.48,-14.554 -22.519,-18.949 -10.817,-30.293 39.161,-37.965 58.905,-9.042 89.942,-30.297 89.942,-61.593 0,-27.727 -53.394,-45.115 -77.15,-25.124 z"
           fill="rgba(0,0,255,1.0)"
           fill-opacity="1"
           stroke="rgba(35,35,35,1.0)"
           stroke-opacity="1"
           stroke-width="0.0"
           id="path902"
           style="fill:#0000ff" />
        <path
           d="m 466.031,75.286 c -48.398,-1.435 -57.619,-2.499 -77.787,-8.974 -34.215,-10.985 -46.323,-9.364 -51.483,6.892 -0.994,3.133 -4.979,6.492 -8.854,7.465 -11.084,2.782 -9.524,66.854 1.708,70.189 19.37,5.75 50.716,1.419 60.855,-8.409 9.359,-9.071 9.926,-9.229 18.019,-5.008 14.746,7.69 28.329,3.927 36.646,-10.151 3.923,-6.641 6.927,-8.336 14.772,-8.336 10.419,0 21.289,-8.06 21.289,-15.785 0,-3.154 1.875,-3.874 6.842,-2.627 9.167,2.301 23.5,-5.45 28.711,-15.526 4.189,-8.102 4.189,-8.102 -50.718,-9.73 z"
           fill="rgba(0,0,255,1.0)"
           fill-opacity="1"
           stroke="rgba(35,35,35,1.0)"
           stroke-opacity="1"
           stroke-width="0.0"
           id="path904"
           style="fill:#0000ff" />
        <path
           d="m 292.176,563.509 c 2.241,3.626 8.107,1.156 8.761,-3.689 0.3,-2.229 1.362,-13.896 2.361,-25.925 1.815,-21.873 1.815,-21.873 17.663,-16.303 17.794,6.254 21.511,5.281 13.525,-3.543 -25.688,-28.385 -63.27,15.546 -42.31,49.46 z"
           fill="rgba(0,0,255,1.0)"
           fill-opacity="1"
           stroke="rgba(35,35,35,1.0)"
           stroke-opacity="1"
           stroke-width="0.0"
           id="path906"
           style="fill:#0000ff" />
        <path
           d="m 328.828,340.439 c -4.63,2.3 -15.818,6.442 -24.863,9.206 -16.445,5.023 -16.445,5.023 -16.445,18.908 0,13.886 0,13.886 8.58,10.895 7.795,-2.717 8.58,-4.152 8.58,-15.682 0,-11.756 0.417,-12.469 5.654,-9.665 18.775,10.048 10.463,24.729 -19.646,34.695 -33.988,11.251 -51.627,39.656 -35.615,57.35 5.81,6.42 4.574,6.514 15.875,-1.204 7.36,-5.027 9.228,-8.12 8.533,-14.137 -1.02,-8.835 3.195,-11.574 34.491,-22.417 37.593,-13.024 50.371,-40.63 29.852,-64.485 -6.25,-7.266 -6.997,-7.438 -14.996,-3.464 z"
           fill="rgba(0,0,255,1.0)"
           fill-opacity="1"
           stroke="rgba(35,35,35,1.0)"
           stroke-opacity="1"
           stroke-width="0.0"
           id="path908"
           style="fill:#0000ff" />
        <path
           d="m 304.68,288.426 c 0,-14.061 -0.185,-14.371 -8.58,-14.371 -8.58,0 -8.58,0 -8.58,17.159 0,9.438 0.56,17.16 1.244,17.16 10.903,10e-4 15.916,-6.282 15.916,-19.948 z"
           fill="rgba(0,0,255,1.0)"
           fill-opacity="1"
           stroke="rgba(35,35,35,1.0)"
           stroke-opacity="1"
           stroke-width="0.0"
           id="path910"
           style="fill:#0000ff" />
      </g>
    </clipPath>
  </defs>
  <sodipodi:namedview
     pagecolor="#ffffff"
     bordercolor="#666666"
     borderopacity="1"
     objecttolerance="10"
     gridtolerance="10"
     guidetolerance="10"
     inkscape:pageopacity="0"
     inkscape:pageshadow="2"
     inkscape:window-width="1920"
     inkscape:window-height="1016"
     id="namedview6"
     showgrid="false"
     inkscape:zoom="0.36896552"
     inkscape:cx="587.78762"
     inkscape:cy="51.834305"
     inkscape:window-x="0"
     inkscape:window-y="27"
     inkscape:window-maximized="1"
     inkscape:current-layer="svg4"
     inkscape:document-rotation="0" />
  <circle
     style="fill:#0000ff"
     id="path995"
     cx="450"
     cy="450"
     r="450" />
  <circle
     style="fill:#ffffff"
     id="path1001"
     cx="450"
     cy="450"
     r="425" />
  <path
     d="M 749.89886,716.72431 C 718.92315,653.77804 689.00142,611.76054 655.7296,584.49278 624.79609,559.1391 593.988,549.63877 565.08529,542.08171 c -6.86178,-1.79379 -9.86095,-1.82532 -12.50678,-1.85452 -1.83543,-0.021 -3.59972,-0.0385 -6.82078,-0.73106 26.35818,-18.21938 40.7004,-56.64346 37.68676,-102.07805 -3.82524,-57.6513 -37.21524,-131.29142 -119.4614,-165.07219 -0.64517,-0.2651 -1.37718,-0.26043 -2.01753,0.014 -0.64156,0.27328 -1.13841,0.7918 -1.37356,1.43294 -33.76747,92.43057 -20.43582,176.24486 39.61505,249.29989 -28.23824,-13.08208 -81.30673,-42.87119 -129.13181,-98.60841 30.3824,-30.51084 44.77888,-63.30829 42.80235,-97.51766 -2.57468,-44.53185 -32.2311,-89.37668 -88.14561,-133.28608 -0.60538,-0.47531 -1.40371,-0.65399 -2.16465,-0.48932 -0.76095,0.16817 -1.4001,0.66333 -1.73414,1.34534 -20.62877,42.09108 -28.3118,79.18617 -23.48926,113.40604 3.209,22.76576 11.66263,42.4461 21.50911,59.56889 L 287.29272,332.8794 c -0.1411,-18.89439 -3.96271,-53.99131 -27.12878,-83.68116 -24.70242,-31.65998 -71.44095,-58.25507 -91.39922,-69.61226 -3.71429,-2.11378 -7.24166,-4.12129 -8.39333,-4.92943 -0.16039,-0.26743 -0.37504,-0.50917 -0.63794,-0.70654 -0.84657,-0.6353 -2.01391,-0.69252 -2.91957,-0.13663 -0.49805,0.3048 -0.86466,0.78128 -1.0564,1.31615 v 0 c -10e-4,0.003 -0.0109,0.0315 -0.0193,0.0584 -0.001,0.004 -0.002,0.008 -0.004,0.0117 -0.004,0.0105 -0.007,0.0222 -0.01,0.0292 -10e-4,0.005 -0.002,0.009 -0.005,0.014 -0.80315,2.45128 -19.28777,60.50899 13.81281,103.30427 16.44417,24.1041 58.0852,50.76925 99.24385,63.59207 l 45.8787,48.72438 c -8.04723,-4.16099 -16.36579,-7.7369 -24.87006,-10.68802 -13.59936,-4.71922 -29.76133,-7.11211 -48.03611,-7.11211 -26.51134,0 -50.77481,4.96797 -62.43502,7.35502 -2.46614,0.50567 -4.81651,0.98682 -5.82709,1.12463 -0.18209,-0.0491 -0.37384,-0.0794 -0.56799,-0.0888 -1.04314,-0.0514 -1.99945,0.52436 -2.42997,1.43994 -0.27495,0.58392 -0.28581,1.24141 -0.0856,1.83116 v 0 c 10e-4,0.005 0.0386,0.10511 0.0398,0.10978 1.00334,2.72105 25.13897,66.81062 76.97018,85.03935 10.10455,4.21938 23.67979,6.5422 38.23787,6.5422 27.07692,0 60.87814,-8.42592 76.82788,-31.80245 28.272,31.7826 56.34261,56.08406 85.43948,73.94258 -16.0655,-1.51117 -31.77405,-2.27377 -46.8338,-2.27377 -14.704,0 -29.20299,0.72639 -43.09539,2.16049 -0.0398,0.005 -0.0796,0.009 -0.12059,0.0152 -29.5093,4.43427 -49.96803,18.56506 -73.65627,34.92876 -13.46791,9.30413 -27.39528,18.92358 -44.58834,27.92875 -0.0723,0.0374 -0.1423,0.0783 -0.20983,0.12262 -1.18544,0.77311 -3.05223,2.31115 -5.41587,4.25793 -3.61781,2.98031 -11.14768,9.18268 -13.33887,9.44544 -1.08293,0.12846 -1.95965,0.91208 -2.18034,1.94678 -0.22068,1.0347 0.26531,2.08925 1.20715,2.62295 13.29184,7.52786 26.76096,16.47931 39.78629,25.1353 30.26542,20.11477 61.56192,40.91273 91.78754,44.26909 5.78247,0.64231 11.66986,0.96813 17.49574,0.96813 41.59521,0 81.58048,-16.11027 109.70295,-44.20135 22.22905,-22.20287 34.39214,-49.72638 34.49585,-77.85483 12.74676,4.04771 24.93638,7.16583 36.75577,10.19052 3.38748,0.86653 6.73999,1.72489 10.06114,2.59376 27.87043,7.28728 47.23296,15.25892 75.71238,38.59808 27.96932,22.92459 50.30449,61.88237 81.73485,125.75472 0.4281,0.87121 1.33135,1.40257 2.29369,1.40257 0.19174,0 0.38469,-0.021 0.57764,-0.0642 l 28.0887,-6.32616 c 0.7501,-0.16933 1.38201,-0.65749 1.71485,-1.33016 0.33525,-0.66683 0.33766,-1.45045 0.005,-2.12312 z"
     fill="rgba(0,0,255,1.0)"
     fill-opacity="1"
     stroke="rgba(35,35,35,1.0)"
     stroke-opacity="1"
     stroke-width="1.18673"
     id="path2"
     style="fill:#0000ff;fill-rule:evenodd" />
</svg>
