<?xml version="1.0" encoding="UTF-8" standalone="no"?>
<svg
   xmlns:dc="http://purl.org/dc/elements/1.1/"
   xmlns:cc="http://creativecommons.org/ns#"
   xmlns:rdf="http://www.w3.org/1999/02/22-rdf-syntax-ns#"
   xmlns:svg="http://www.w3.org/2000/svg"
   xmlns="http://www.w3.org/2000/svg"
   xmlns:sodipodi="http://sodipodi.sourceforge.net/DTD/sodipodi-0.dtd"
   xmlns:inkscape="http://www.inkscape.org/namespaces/inkscape"
   enable-background="new 0 0 580 580"
   height="900"
   viewBox="0 0 900 900"
   width="900"
   version="1.1"
   id="svg10"
   sodipodi:docname="sport_hillclimbing.svg"
   inkscape:version="1.0.2 (e86c870879, 2021-01-15)">
  <metadata
     id="metadata16">
    <rdf:RDF>
      <cc:Work
         rdf:about="">
        <dc:format>image/svg+xml</dc:format>
        <dc:type
           rdf:resource="http://purl.org/dc/dcmitype/StillImage" />
        <dc:title />
      </cc:Work>
    </rdf:RDF>
  </metadata>
  <defs
     id="defs14">
    <clipPath
       clipPathUnits="userSpaceOnUse"
       id="clipPath1018">
      <g
         inkscape:label="Clip"
         id="use1020"
         style="fill:#0000ff">
        <path
           d="m 290.832,441.674 c -31.244,13.811 -39.246,29.148 -24.407,46.783 9.142,10.865 13.638,9.969 14.894,-2.97 1.235,-12.734 4.188,-15.937 16.896,-18.32 27.198,-5.103 37.926,-16.841 37.926,-41.497 0,-17.664 -18.612,-18.242 -45.825,-1.424 -8.21,5.074 -2.841,13.001 5.785,8.54 4.719,-2.44 8.58,-5.948 8.58,-7.796 0,-2.466 0.846,-2.513 3.183,-0.175 4.87,4.872 0.661,9.038 -17.032,16.859 z"
           fill="rgba(0,0,255,1.0)"
           fill-opacity="1"
           stroke="rgba(255,255,255,1.0)"
           stroke-opacity="1"
           stroke-width="0.0"
           id="path902"
           style="fill:#0000ff" />
        <path
           d="m 328.016,486.704 c 9.092,-10.178 8.177,-28.52 -1.171,-23.479 -3.539,1.908 -13.514,5.662 -22.165,8.342 -11.871,3.677 -15.954,6.358 -16.644,10.931 -1.164,7.716 1.691,7.67 10.025,-0.159 5.087,-4.778 6.619,-5.215 6.619,-1.883 0,2.385 -12.308,12.253 -27.35,21.93 -15.043,9.677 -26.612,18.79 -25.709,20.25 2.659,4.303 67.839,-26.354 76.395,-35.932 z"
           fill="rgba(0,0,255,1.0)"
           fill-opacity="1"
           stroke="rgba(255,255,255,1.0)"
           stroke-opacity="1"
           stroke-width="0.0"
           id="path904"
           style="fill:#0000ff" />
        <path
           d="m 234.647,248.256 c 0.992,-1.606 8.237,-6.594 16.1,-11.084 14.295,-8.165 14.295,-8.165 3.37,-10.136 -21.112,-3.808 -35.236,-12.577 -35.236,-21.876 0,-10.276 7.745,-11.229 19.662,-2.417 9.831,7.269 30.959,6.826 35.705,-0.749 9.846,-15.715 -15.809,-35.339 -41.891,-32.044 -50.051,6.323 -60.335,45.334 -19.229,72.941 13.044,8.762 18.568,10.139 21.519,5.365 z"
           fill="rgba(0,0,255,1.0)"
           fill-opacity="1"
           stroke="rgba(255,255,255,1.0)"
           stroke-opacity="1"
           stroke-width="0.0"
           id="path906"
           style="fill:#0000ff" />
        <path
           d="m 196.045,137.979 c 1.941,2.655 7.089,7.174 11.44,10.042 8.201,5.407 33.668,7.108 51.882,3.466 11.391,-2.278 14.536,-67.551 3.425,-71.077 -3.032,-0.962 -8.136,-6.197 -11.344,-11.633 -7.323,-12.413 -15.978,-12.881 -47.812,-2.587 -19.814,6.407 -29.27,7.505 -77.618,9.015 -30.28,0.945 -55.055,2.523 -55.055,3.508 0,9.766 22.45,24.528 33.198,21.83 5.475,-1.374 6.842,-0.596 6.842,3.896 0,7.437 10.547,14.517 21.627,14.517 6.741,0 9.711,1.749 12.183,7.172 5.74,12.597 20.749,17.614 35.435,11.844 11.506,-4.521 12.486,-4.521 15.797,0.007 z"
           fill="rgba(0,0,255,1.0)"
           fill-opacity="1"
           stroke="rgba(255,255,255,1.0)"
           stroke-opacity="1"
           stroke-width="0.0"
           id="path908"
           style="fill:#0000ff" />
        <path
           d="m 279.074,64.546 c 4.811,3.37 5.586,7.359 5.594,28.775 0.004,13.674 0.851,48.994 1.882,78.488 1.875,53.625 1.875,53.625 10.002,53.625 8.128,0 8.128,0 8.128,-76.092 0,-76.093 0,-76.093 7.151,-84.591 C 325.452,48.563 323.443,29.168 307.279,20.809 279.377,6.38 253.444,46.594 279.074,64.546 Z"
           fill="rgba(0,0,255,1.0)"
           fill-opacity="1"
           stroke="rgba(255,255,255,1.0)"
           stroke-opacity="1"
           stroke-width="0.0"
           id="path910"
           style="fill:#0000ff" />
        <path
           d="m 352.606,264.865 c -2.296,1.905 -10.224,4.292 -17.619,5.306 -10.868,1.49 -13.08,2.724 -11.542,6.438 4.538,10.957 4.128,14.151 -2.89,22.491 -4.793,5.696 -14.751,11.606 -28.096,16.675 -51.44,19.535 -69.171,45.413 -49.125,71.695 8.774,11.504 8.5,11.483 26.793,1.992 13.904,-7.213 14.323,-7.764 8.844,-11.602 -16.611,-11.636 -5.79,-24.864 30.973,-37.865 42.085,-14.882 60.284,-33.334 56.276,-57.055 -2.594,-15.363 -8.09,-22.66 -13.614,-18.075 z"
           fill="rgba(0,0,255,1.0)"
           fill-opacity="1"
           stroke="rgba(255,255,255,1.0)"
           stroke-opacity="1"
           stroke-width="0.0"
           id="path912"
           style="fill:#0000ff" />
        <path
           d="m 324.77,178.626 c -22.994,19.348 4.653,42.035 29.152,23.922 10.3,-7.615 17.969,-6.507 17.969,2.598 0,13.32 -42.002,28.635 -79.006,28.808 -51.078,0.239 -87.506,50.775 -58.652,81.369 11.545,12.241 13.308,12.381 32.104,2.539 14.657,-7.674 14.657,-7.674 6.48,-14.554 -22.519,-18.949 -10.817,-30.293 39.161,-37.965 58.905,-9.042 89.942,-30.297 89.942,-61.593 0,-27.727 -53.394,-45.115 -77.15,-25.124 z"
           fill="rgba(0,0,255,1.0)"
           fill-opacity="1"
           stroke="rgba(255,255,255,1.0)"
           stroke-opacity="1"
           stroke-width="0.0"
           id="path914"
           style="fill:#0000ff" />
        <path
           d="m 466.031,75.286 c -48.398,-1.435 -57.619,-2.499 -77.787,-8.974 -34.215,-10.985 -46.323,-9.364 -51.483,6.892 -0.994,3.133 -4.979,6.492 -8.854,7.465 -11.084,2.782 -9.524,66.854 1.708,70.189 19.37,5.75 50.716,1.419 60.855,-8.409 9.359,-9.071 9.926,-9.229 18.019,-5.008 14.746,7.69 28.329,3.927 36.646,-10.151 3.923,-6.641 6.927,-8.336 14.772,-8.336 10.419,0 21.289,-8.06 21.289,-15.785 0,-3.154 1.875,-3.874 6.842,-2.627 9.167,2.301 23.5,-5.45 28.711,-15.526 4.189,-8.102 4.189,-8.102 -50.718,-9.73 z"
           fill="rgba(0,0,255,1.0)"
           fill-opacity="1"
           stroke="rgba(255,255,255,1.0)"
           stroke-opacity="1"
           stroke-width="0.0"
           id="path916"
           style="fill:#0000ff" />
        <path
           d="m 292.176,563.509 c 2.241,3.626 8.107,1.156 8.761,-3.689 0.3,-2.229 1.362,-13.896 2.361,-25.925 1.815,-21.873 1.815,-21.873 17.663,-16.303 17.794,6.254 21.511,5.281 13.525,-3.543 -25.688,-28.385 -63.27,15.546 -42.31,49.46 z"
           fill="rgba(0,0,255,1.0)"
           fill-opacity="1"
           stroke="rgba(255,255,255,1.0)"
           stroke-opacity="1"
           stroke-width="0.0"
           id="path918"
           style="fill:#0000ff" />
        <path
           d="m 328.828,340.439 c -4.63,2.3 -15.818,6.442 -24.863,9.206 -16.445,5.023 -16.445,5.023 -16.445,18.908 0,13.886 0,13.886 8.58,10.895 7.795,-2.717 8.58,-4.152 8.58,-15.682 0,-11.756 0.417,-12.469 5.654,-9.665 18.775,10.048 10.463,24.729 -19.646,34.695 -33.988,11.251 -51.627,39.656 -35.615,57.35 5.81,6.42 4.574,6.514 15.875,-1.204 7.36,-5.027 9.228,-8.12 8.533,-14.137 -1.02,-8.835 3.195,-11.574 34.491,-22.417 37.593,-13.024 50.371,-40.63 29.852,-64.485 -6.25,-7.266 -6.997,-7.438 -14.996,-3.464 z"
           fill="rgba(0,0,255,1.0)"
           fill-opacity="1"
           stroke="rgba(255,255,255,1.0)"
           stroke-opacity="1"
           stroke-width="0.0"
           id="path920"
           style="fill:#0000ff" />
        <path
           d="m 304.68,288.426 c 0,-14.061 -0.185,-14.371 -8.58,-14.371 -8.58,0 -8.58,0 -8.58,17.159 0,9.438 0.56,17.16 1.244,17.16 10.903,10e-4 15.916,-6.282 15.916,-19.948 z"
           fill="rgba(0,0,255,1.0)"
           fill-opacity="1"
           stroke="rgba(255,255,255,1.0)"
           stroke-opacity="1"
           stroke-width="0.0"
           id="path922"
           style="fill:#0000ff" />
      </g>
    </clipPath>
  </defs>
  <sodipodi:namedview
     pagecolor="#ffffff"
     bordercolor="#666666"
     borderopacity="1"
     objecttolerance="10"
     gridtolerance="10"
     guidetolerance="10"
     inkscape:pageopacity="0"
     inkscape:pageshadow="2"
     inkscape:window-width="1920"
     inkscape:window-height="1016"
     id="namedview12"
     showgrid="false"
     inkscape:zoom="0.52179604"
     inkscape:cx="367.60528"
     inkscape:cy="334.19363"
     inkscape:window-x="0"
     inkscape:window-y="27"
     inkscape:window-maximized="1"
     inkscape:current-layer="svg10"
     inkscape:document-rotation="0" />
  <circle
     style="fill:#0000ff"
     id="path995"
     cx="450"
     cy="450"
     r="450" />
  <circle
     style="fill:#ffffff"
     id="path1001"
     cx="450"
     cy="450"
     r="425" />
  <g
     id="g845"
     transform="matrix(1.29958,0,0,1.29958,78.441278,71.617804)"
     style="fill-rule:evenodd">
    <path
       d="m 232.95,138.191 c 10.577,0 19.779,-3.818 27.607,-11.456 7.828,-7.637 11.742,-16.935 11.743,-27.895 0,-10.577 -3.915,-19.782 -11.743,-27.617 -7.828,-7.833 -17.031,-11.75 -27.607,-11.751 -10.972,0 -20.276,3.917 -27.913,11.751 -7.637,7.834 -11.456,17.04 -11.455,27.617 0,10.96 3.818,20.258 11.455,27.895 7.637,7.638 16.942,11.456 27.913,11.456 z"
       fill="rgba(0,0,255,1.0)"
       fill-opacity="1"
       stroke="rgba(255,255,255,1.0)"
       stroke-opacity="1"
       stroke-width="0.0"
       id="path2"
       style="fill:#0000ff;fill-rule:evenodd" />
    <path
       d="m 80.212,249.805 c 6.657,3.92 11.748,2.552 15.273,-4.105 l 58.747,-101.037 c 3.92,-6.657 2.552,-11.748 -4.105,-15.274 l -18.806,-11.168 c -6.657,-3.908 -11.749,-2.534 -15.274,4.123 L 57.301,223.38 c -3.908,6.657 -2.534,11.749 4.124,15.274 z"
       fill="rgba(0,0,255,1.0)"
       fill-opacity="1"
       stroke="rgba(255,255,255,1.0)"
       stroke-opacity="1"
       stroke-width="0.0"
       id="path4"
       style="fill:#0000ff;fill-rule:evenodd" />
    <path
       d="m 474.392,68.293 -24.094,109.266 -41.125,17.031 -35.836,100.446 34.079,76.96 -9.394,29.956 -79.31,23.503 -4.696,35.244 -126.296,31.14 1.166,21.136 h 308.398 c 5.485,0 10.09,-1.858 13.813,-5.575 3.722,-3.717 5.583,-8.318 5.584,-13.804 V 77.687 Z"
       fill="rgba(0,0,255,1.0)"
       fill-opacity="1"
       stroke="rgba(255,255,255,1.0)"
       stroke-opacity="1"
       stroke-width="0.0"
       id="path6"
       style="fill:#0000ff;fill-rule:evenodd" />
    <path
       d="m 225.314,360.826 11.15,70.508 c 1.577,11.748 8.629,18.597 21.154,20.544 8.617,1.184 16.155,-1.261 22.615,-7.332 6.459,-6.071 9.104,-13.415 7.933,-22.032 l -13.517,-85.172 c -1.566,-9.011 -6.46,-15.279 -14.682,-18.805 l -61.095,-27.607 38.776,-67.55 19.379,24.668 c 1.565,2.354 3.919,4.117 7.063,5.289 l 73.429,21.154 c 1.948,0.777 3.705,1.166 5.271,1.165 5.485,0 10.188,-2.154 14.108,-6.462 3.92,-4.308 5.88,-9.206 5.881,-14.691 -10e-4,-9.788 -4.704,-16.248 -14.109,-19.379 l -63.443,-18.788 -48.17,-58.173 C 230.4,150.335 221,145.441 208.858,143.481 187.715,140.35 171.856,147.79 161.279,165.8 l -53.458,92.235 c -3.526,5.88 -5.091,13.123 -4.697,21.728 l 1.757,116.902 -40.533,86.946 c -1.565,3.525 -2.54,6.46 -2.922,8.802 -1.183,7.446 0.379,14.007 4.688,19.685 4.308,5.677 10.186,9.106 17.631,10.29 12.525,1.947 21.333,-2.36 26.425,-12.926 l 44.656,-95.175 c 1.565,-3.525 2.348,-7.242 2.348,-11.15 l -0.591,-72.264 z"
       fill="rgba(0,0,255,1.0)"
       fill-opacity="1"
       stroke="rgba(255,255,255,1.0)"
       stroke-opacity="1"
       stroke-width="0.0"
       id="path8"
       style="fill:#0000ff;fill-rule:evenodd" />
  </g>
</svg>
